<?xml version="1.0" standalone="no"?>
<!DOCTYPE svg PUBLIC "-//W3C//DTD SVG 20010904//EN"
 "http://www.w3.org/TR/2001/REC-SVG-20010904/DTD/svg10.dtd">
<svg version="1.0" xmlns="http://www.w3.org/2000/svg"
 width="512.000000pt" height="512.000000pt" viewBox="0 0 512.000000 512.000000"
 preserveAspectRatio="xMidYMid meet">
<metadata>
Created by potrace 1.11, written by Peter Selinger 2001-2013
</metadata>
<g transform="translate(0.000000,512.000000) scale(0.100000,-0.100000)"
fill="#000000" stroke="none">
<path d="M2260 5025 c-547 -66 -1061 -317 -1454 -711 -964 -964 -969 -2529
-12 -3498 367 -372 831 -612 1363 -707 168 -30 529 -38 703 -15 637 84 1178
374 1588 851 724 843 796 2070 177 2995 -405 605 -1041 996 -1765 1085 -149
18 -450 18 -600 0z m120 -1098 c50 -25 50 -32 -54 -559 -53 -271 -96 -501 -96
-510 0 -10 9 -27 20 -38 19 -19 33 -20 350 -20 l330 0 32 28 c31 29 32 31 135
537 72 356 108 514 121 528 34 39 74 47 231 47 161 0 191 -6 216 -43 14 -22 9
-56 -85 -532 -102 -521 -104 -532 -66 -557 6 -4 112 -8 236 -8 243 0 267 -5
284 -52 11 -31 -46 -318 -71 -356 -29 -46 -65 -52 -310 -52 -243 0 -258 -3
-283 -50 -6 -11 -55 -247 -110 -526 -58 -300 -105 -516 -115 -531 -31 -46 -71
-55 -250 -51 -144 3 -165 5 -184 22 -12 11 -21 31 -21 48 0 16 43 246 95 512
52 266 95 496 95 512 0 15 -7 36 -17 46 -15 17 -39 18 -352 18 -372 0 -370 0
-396 -64 -7 -17 -54 -254 -106 -526 -92 -487 -94 -496 -125 -530 l-32 -35
-174 -3 c-188 -3 -216 3 -232 49 -6 19 17 154 93 539 l102 513 -19 26 -19 26
-234 5 c-252 5 -273 10 -283 57 -8 37 47 315 68 348 32 49 65 55 308 55 239 0
253 3 280 53 6 12 53 246 103 520 98 529 97 525 160 553 41 18 340 19 375 1z"/>
</g>
</svg>
