<svg
  xmlns="http://www.w3.org/2000/svg"
  x="0"
  y="0"
  enableBackground="new 0 0 300 300"
  version="1.1"
  viewBox="0 0 300 300"
  xmlSpace="preserve"
>
  <path d="M204.2 79.2c3.7 0 6.8 3.1 6.8 6.8v159.4c0 3.7-3.1 6.8-6.8 6.8H46.9c-3.7 0-6.8-3.1-6.8-6.8V86c0-3.7 3.1-6.8 6.8-6.8h157.3m0-11.3H46.9c-9.9 0-18.1 8.2-18.1 18.1v159.4c0 9.9 8.2 18.1 18.1 18.1h157.2c9.9 0 18.1-8.2 18.1-18.1V86c.1-9.9-8.1-18.1-18-18.1z" />
  <path d="M277.5 47.1v159.4c0 9.9-8.2 18.1-18.1 18.1H102.1c-9.9 0-18.1-8.2-18.1-18.1V47.1c0-9.9 8.2-18.1 18.1-18.1h157.2c10 0 18.2 8.2 18.2 18.1z" />
  <path
    d="M232.4 113.7h-39.1V74.6c0-4.8-3.9-8.7-8.7-8.7h-8.7c-4.8 0-8.7 3.9-8.7 8.7v39.1h-39.1c-4.8 0-8.7 3.9-8.7 8.7v8.7c0 4.8 3.9 8.7 8.7 8.7h39.1v39.1c0 4.8 3.9 8.7 8.7 8.7h8.7c4.8 0 8.7-3.9 8.7-8.7v-39.1h39.1c4.8 0 8.7-3.9 8.7-8.7v-8.7c0-4.8-3.9-8.7-8.7-8.7z"
    className="st0"
  />
</svg>