<svg
  xmlns="http://www.w3.org/2000/svg"
  x="0"
  y="0"
  enableBackground="new 0 0 300 300"
  version="1.1"
  viewBox="0 0 300 300"
  xmlSpace="preserve"
  className="hashcircle"
>
  <circle cx="150" cy="150" r="142" />
  <path
    d="M241.1 122.6l1.8-10c.5-3.1-1.8-5.9-4.9-5.9h-37l7.9-44c.5-3.1-1.8-5.9-4.9-5.9h-10.1c-2.4 0-4.5 1.7-4.9 4.1l-8.2 45.7h-46.2l7.9-44c.5-3.1-1.8-5.9-4.9-5.9h-10.1c-2.4 0-4.5 1.7-4.9 4.1l-8.2 45.7H75.6c-2.4 0-4.5 1.7-4.9 4.1l-1.8 10c-.5 3.1 1.8 5.9 4.9 5.9h37l-8.3 46.5H63.8c-2.4 0-4.5 1.7-4.9 4.1l-1.8 10c-.5 3.1 1.8 5.9 4.9 5.9h37l-7.9 44c-.5 3.1 1.8 5.9 4.9 5.9h10.1c2.4 0 4.5-1.7 4.9-4.1l8.2-45.7h46.2l-7.9 44c-.5 3.1 1.8 5.9 4.9 5.9h10.1c2.4 0 4.5-1.7 4.9-4.1l8.2-45.7h38.7c2.4 0 4.5-1.7 4.9-4.1l1.8-10c.5-3.1-1.8-5.9-4.9-5.9h-37l8.3-46.5h38.7c2.6 0 4.6-1.7 5-4.1zm-72.2 50.6h-46.2l8.3-46.5h46.2l-8.3 46.5z"
    className="st0"
  />
</svg>